General
Complete name                    : The Passion of the Christ.2004.avi
Format                           : AVI
File size                        : 1.37 GiB
Duration                         : 2h 1mn
Overall bit rate                 : 1 611 Kbps

Video

Format                           : MPEG-4 Visual
Codec ID/Hint                    : XviD
Duration                         : 2h 1mn
Bit rate                         : 1 155 Kbps
Width                            : 644 pixels
Height                           : 370 pixels
Display aspect ratio             : 16:9
Stream size                      : 1 003 MiB (72%)
Writing library                  : XviD 1.2.1 (UTC 2008-12-04)

Audio

Format                           : AC-3
Duration                         : 2h 1mn
Bit rate                         : 448 Kbps
Channel(s)                       : 6 channels
Channel positions                : Front: L C R, Side: L R, LFE
Sampling rate                    : 48.0 KHz
Stream size                      : 389 MiB (28%)
Alignment                        : Split accross interleaves



           Language:........................: Aramaic Latin Hebrew !


 
http://en.wikipedia.org/wiki/The_Passion_of_the_Christ

**********************************************************************

My recent torrent IS: Valentine´s.Day.2010.SWESUB.DVDRip.XviD.-Zen_Bud
But something goes very wrong when you writing "xyz´s", and we can´t 
edit yet :(

**********************************************************************